HIERARCHY
ROOT Hips
{
	OFFSET 0.000000 0.000000 0.990480
	CHANNELS 6 Xposition Yposition Zposition Xrotation Yrotation Zrotation
	JOINT Spine
	{
		OFFSET 0.000000 0.000000 0.099820
		CHANNELS 6 Xposition Yposition Zposition Xrotation Yrotation Zrotation
		JOINT Chest
		{
			OFFSET 0.000000 0.000000 0.152175
			CHANNELS 6 Xposition Yposition Zposition Xrotation Yrotation Zrotation
			JOINT Neck
			{
				OFFSET 0.000000 0.000000 0.337083
				CHANNELS 6 Xposition Yposition Zposition Xrotation Yrotation Zrotation
				JOINT Head
				{
					OFFSET 0.000000 0.000000 0.150550
					CHANNELS 3 Xrotation Yrotation Zrotation
					End Site
					{
						OFFSET 0.000000 0.000000 0.164719
					}
				}
			}
			JOINT RightShoulder
			{
				OFFSET -0.043277 0.000000 0.228616
				CHANNELS 6 Xposition Yposition Zposition Xrotation Yrotation Zrotation
				JOINT RightArm
				{
					OFFSET -0.105461 0.000000 0.000004
					CHANNELS 6 Xposition Yposition Zposition Xrotation Yrotation Zrotation
					JOINT RightForeArm
					{
						OFFSET -0.247377 0.000000 0.000009
						CHANNELS 6 Xposition Yposition Zposition Xrotation Yrotation Zrotation
						JOINT RightHand
						{
							OFFSET -0.262149 0.000000 0.000009
							CHANNELS 6 Xposition Yposition Zposition Xrotation Yrotation Zrotation
							JOINT RightHandIndex1
							{
								OFFSET -0.082535 -0.029415 0.000003
								CHANNELS 3 Xrotation Yrotation Zrotation
								JOINT RightHandIndex2
								{
									OFFSET -0.033301 -0.004409 0.000001
									CHANNELS 3 Xrotation Yrotation Zrotation
									JOINT RightHandIndex3
									{
										OFFSET -0.025492 -0.003784 0.000001
										CHANNELS 3 Xrotation Yrotation Zrotation
										End Site
										{
											OFFSET -0.043285 -0.003344 0.000001
										}
									}
								}
							}
							JOINT RightHandMiddle1
							{
								OFFSET -0.088557 -0.008155 0.000003
								CHANNELS 3 Xrotation Yrotation Zrotation
								JOINT RightHandMiddle2
								{
									OFFSET -0.034042 -0.001186 0.000001
									CHANNELS 3 Xrotation Yrotation Zrotation
									JOINT RightHandMiddle3
									{
										OFFSET -0.026773 -0.000599 0.000000
										CHANNELS 3 Xrotation Yrotation Zrotation
										End Site
										{
											OFFSET -0.052615 -0.002366 0.000002
										}
									}
								}
							}
							JOINT RightHandRing1
							{
								OFFSET -0.085632 0.009333 0.000003
								CHANNELS 3 Xrotation Yrotation Zrotation
								JOINT RightHandRing2
								{
									OFFSET -0.029113 0.002339 0.000001
									CHANNELS 3 Xrotation Yrotation Zrotation
									JOINT RightHandRing3
									{
										OFFSET -0.027037 0.001866 0.000001
										CHANNELS 3 Xrotation Yrotation Zrotation
										End Site
										{
											OFFSET -0.048310 0.000687 0.000001
										}
									}
								}
							}
							JOINT RightHandPinky1
							{
								OFFSET -0.076599 0.027405 0.000003
								CHANNELS 3 Xrotation Yrotation Zrotation
								JOINT RightHandPinky2
								{
									OFFSET -0.032445 0.007645 0.000002
									CHANNELS 3 Xrotation Yrotation Zrotation
									JOINT RightHandPinky3
									{
										OFFSET -0.019101 0.004136 0.000001
										CHANNELS 3 Xrotation Yrotation Zrotation
										End Site
										{
											OFFSET -0.036478 0.003212 0.000001
										}
									}
								}
							}
							JOINT RightHandThumb1
							{
								OFFSET -0.018894 -0.029252 0.000001
								CHANNELS 3 Xrotation Yrotation Zrotation
								JOINT RightHandThumb2
								{
									OFFSET -0.024834 -0.023384 0.000001
									CHANNELS 3 Xrotation Yrotation Zrotation
									JOINT RightHandThumb3
									{
										OFFSET -0.024730 -0.013883 0.000001
										CHANNELS 3 Xrotation Yrotation Zrotation
										End Site
										{
											OFFSET -0.036269 -0.015625 0.000001
										}
									}
								}
							}
						}
					}
				}
			}
			JOINT LeftShoulder
			{
				OFFSET 0.043336 0.000000 0.228616
				CHANNELS 6 Xposition Yposition Zposition Xrotation Yrotation Zrotation
				JOINT LeftArm
				{
					OFFSET 0.105402 0.000000 0.000018
					CHANNELS 6 Xposition Yposition Zposition Xrotation Yrotation Zrotation
					JOINT LeftForeArm
					{
						OFFSET 0.248086 -0.001017 0.000042
						CHANNELS 6 Xposition Yposition Zposition Xrotation Yrotation Zrotation
						JOINT LeftHand
						{
							OFFSET 0.262001 0.000000 0.000044
							CHANNELS 6 Xposition Yposition Zposition Xrotation Yrotation Zrotation
							JOINT LeftHandIndex1
							{
								OFFSET 0.082507 -0.030061 -0.000028
								CHANNELS 3 Xrotation Yrotation Zrotation
								JOINT LeftHandIndex2
								{
									OFFSET 0.033280 -0.004602 0.000048
									CHANNELS 3 Xrotation Yrotation Zrotation
									JOINT LeftHandIndex3
									{
										OFFSET 0.025464 -0.003944 0.000004
										CHANNELS 3 Xrotation Yrotation Zrotation
										End Site
										{
											OFFSET 0.043236 -0.003593 0.000007
										}
									}
								}
							}
							JOINT LeftHandMiddle1
							{
								OFFSET 0.088481 -0.008664 0.000015
								CHANNELS 3 Xrotation Yrotation Zrotation
								JOINT LeftHandMiddle2
								{
									OFFSET 0.034019 -0.001373 0.000006
									CHANNELS 3 Xrotation Yrotation Zrotation
									JOINT LeftHandMiddle3
									{
										OFFSET 0.026769 -0.000745 0.000005
										CHANNELS 3 Xrotation Yrotation Zrotation
										End Site
										{
											OFFSET 0.052542 -0.002648 0.000009
										}
									}
								}
							}
							JOINT LeftHandRing1
							{
								OFFSET 0.085626 0.008930 0.000014
								CHANNELS 3 Xrotation Yrotation Zrotation
								JOINT LeftHandRing2
								{
									OFFSET 0.029129 0.002221 0.000005
									CHANNELS 3 Xrotation Yrotation Zrotation
									JOINT LeftHandRing3
									{
										OFFSET 0.027049 0.001739 0.000005
										CHANNELS 3 Xrotation Yrotation Zrotation
										End Site
										{
											OFFSET 0.048215 0.000435 0.000008
										}
									}
								}
							}
							JOINT LeftHandPinky1
							{
								OFFSET 0.076700 0.027168 0.000013
								CHANNELS 3 Xrotation Yrotation Zrotation
								JOINT LeftHandPinky2
								{
									OFFSET 0.032485 0.007539 0.000005
									CHANNELS 3 Xrotation Yrotation Zrotation
									JOINT LeftHandPinky3
									{
										OFFSET 0.019121 0.004064 0.000003
										CHANNELS 3 Xrotation Yrotation Zrotation
										End Site
										{
											OFFSET 0.036502 0.003032 0.000006
										}
									}
								}
							}
							JOINT LeftHandThumb1
							{
								OFFSET 0.018711 -0.029540 0.000003
								CHANNELS 3 Xrotation Yrotation Zrotation
								JOINT LeftHandThumb2
								{
									OFFSET 0.024721 -0.023664 0.000004
									CHANNELS 3 Xrotation Yrotation Zrotation
									JOINT LeftHandThumb3
									{
										OFFSET 0.024649 -0.014096 0.000004
										CHANNELS 3 Xrotation Yrotation Zrotation
										End Site
										{
											OFFSET 0.036243 -0.015928 0.000006
										}
									}
								}
							}
						}
					}
				}
			}
		}
	}
	JOINT RightUpLeg
	{
		OFFSET -0.115000 0.000000 -0.015985
		CHANNELS 6 Xposition Yposition Zposition Xrotation Yrotation Zrotation
		JOINT RightLeg
		{
			OFFSET 0.000000 0.000000 -0.417140
			CHANNELS 6 Xposition Yposition Zposition Xrotation Yrotation Zrotation
			JOINT RightFoot
			{
				OFFSET 0.000000 0.000000 -0.438030
				CHANNELS 3 Xrotation Yrotation Zrotation
				JOINT RightToeBase
				{
					OFFSET 0.000000 -0.104620 -0.083528
					CHANNELS 6 Xposition Yposition Zposition Xrotation Yrotation Zrotation
					End Site
					{
						OFFSET 0.000000 -0.133871 -0.000951
					}
				}
			}
		}
	}
	JOINT LeftUpLeg
	{
		OFFSET 0.115000 0.000000 -0.015985
		CHANNELS 6 Xposition Yposition Zposition Xrotation Yrotation Zrotation
		JOINT LeftLeg
		{
			OFFSET 0.000000 0.000000 -0.417140
			CHANNELS 6 Xposition Yposition Zposition Xrotation Yrotation Zrotation
			JOINT LeftFoot
			{
				OFFSET 0.000000 0.000000 -0.438030
				CHANNELS 3 Xrotation Yrotation Zrotation
				JOINT LeftToeBase
				{
					OFFSET 0.000000 -0.104620 -0.083528
					CHANNELS 6 Xposition Yposition Zposition Xrotation Yrotation Zrotation
					End Site
					{
						OFFSET 0.000000 -0.133871 -0.000951
					}
				}
			}
		}
	}
}
MOTION
Frames: 8
Frame Time:	0.016667
-0.5867 0.1897 0.903 -6.5104 4.5082 -18.7434 0 -0.0004 0.1009 11.3874 2.2601 0.9761 0.0001 -0.0014 0.1537 14.0486 3.1159 4.1894 0 0.0016 0.2926 -1.7368 0.17 11.8513 -31.4996 -1.9473 11.9998 -0.0433 0.0016 0.2358 7.5738 -20.3212 -1.0172 -0.1055 0 0 13.5809 -39.5159 21.6597 -0.2668 0 0 -5.1607 -3.4713 51.2726 -0.2827 0 0 27.9733 -12.4741 15.2189 28.1389 -63.6915 33.5594 35.2392 -79.5868 32.3139 9.5625 -64.7766 7.6314 13.9256 -65.951 19.1442 4.4882 -78.8879 4.069 3.5399 -76.5268 3.1424 -9.765 -65.9287 -4.6983 -10.2193 -75.7147 -9.011 -15.4999 -79.7527 -14.1746 -9.7049 -58.0398 5.5521 -28.0133 -67.3703 -19.494 -32.4154 -69.7772 -23.593 12.2702 -22.4546 -1.3176 -0.004 0.002 -25.5763 -0.0042 0.0031 -53.3164 0.0433 0.0016 0.2358 7.1693 20.3072 7.5938 0.1054 0 0 5.3178 37.2581 -1.9579 0.2677 -0.0011 0 -8.5988 4.5748 -44.8688 0.2828 0 0 18.18 -2.6537 -14.1909 28.198 63.453 -33.4909 35.8279 79.3233 -32.786 9.9491 64.7241 -7.9361 13.8445 65.5068 -18.8178 5.5259 78.7896 -5.0056 4.3578 76.4151 -3.8647 -9.0586 66.9165 3.3648 -10.3807 75.9946 8.9914 -15.7817 80.086 14.2786 -9.4395 58.1376 -5.9414 -27.9635 67.4663 19.4119 -32.3267 69.8708 23.4773 12.3555 22.3953 1.3773 -0.004 -0.0009 25.4505 -0.0073 -0.0043 53.2718 -0.115 0 -0.016 21.3712 -17.4831 -0.9609 0 0 -0.4171 12.5442 -0.3753 0.0443 -18.9921 -32.2664 -3.5933 0 -0.1046 -0.0835 -2.2501 0.0044 -0.0209 0.115 0 -0.016 -21.0075 6.2148 12.6198 0 0 -0.4171 39.3774 2.2892 -0.8179 -11.9023 -12.1927 16.0069 0 -0.1046 -0.0835 -1.1371 0 0.0002 
-0.5969 0.1835 0.9052 -7.0706 4.9637 -18.1143 0 -0.0004 0.1008 11.6546 1.9402 0.9795 0.0001 -0.0014 0.1537 14.3808 2.7177 4.1392 0 0.0016 0.2926 -1.7678 0.2128 11.6111 -31.3458 -1.8735 11.8776 -0.0433 0.0016 0.2358 7.5208 -20.2738 -1.176 -0.1055 0 0 13.3898 -39.2442 21.202 -0.2668 0 0 -5.1407 -3.3381 51.281 -0.2827 0 0 28.0757 -12.6727 15.1188 28.139 -63.6915 33.5594 35.2393 -79.5868 32.3138 9.5626 -64.7767 7.6315 13.9258 -65.9511 19.1445 4.4883 -78.8881 4.069 3.5401 -76.5271 3.1426 -9.7648 -65.9288 -4.6977 -10.2195 -75.715 -9.0113 -15.5002 -79.7529 -14.175 -9.7043 -58.0403 5.5543 -28.0142 -67.3708 -19.4948 -32.4177 -69.7784 -23.5953 12.2702 -22.4545 -1.3175 -0.004 0.002 -25.5763 -0.0042 0.0031 -53.3165 0.0433 0.0016 0.2358 7.162 20.282 7.3546 0.1054 0 0 5.6154 37.2943 -2.455 0.2677 -0.0011 0 -8.4003 4.5041 -45.6803 0.2827 0 0 18.6801 -2.3358 -14.1076 28.1979 63.453 -33.4908 35.8281 79.3232 -32.786 9.9492 64.7241 -7.9361 13.8445 65.5068 -18.8177 5.526 78.7896 -5.0056 4.358 76.4149 -3.8646 -9.0586 66.9165 3.3647 -10.3806 75.9946 8.9914 -15.7817 80.086 14.2787 -9.4396 58.1373 -5.9408 -27.9635 67.4664 19.412 -32.3252 69.8701 23.476 12.3555 22.3953 1.3773 -0.004 -0.0009 25.4505 -0.0073 -0.0043 53.2718 -0.115 0 -0.016 21.4795 -17.4893 -1.5001 0 0 -0.4171 14.2231 -0.2849 0.0305 -17.1726 -41.4918 -3.3626 0 -0.1046 -0.0835 -1.8172 -0.0048 0.0206 0.115 0 -0.016 -19.8295 5.5166 12.1366 0 0 -0.4171 39.7466 2.3134 -0.8335 -12.7405 -11.7002 15.5118 0 -0.1046 -0.0835 -1.0766 0 0.0001 
-0.6065 0.1783 0.9074 -7.5046 5.3663 -17.4187 0 -0.0004 0.1008 11.8581 1.649 0.9911 0.0001 -0.0015 0.1537 14.6269 2.3649 4.1238 0 0.0016 0.2926 -1.7979 0.2633 11.3233 -31.2882 -1.8283 11.679 -0.0433 0.0016 0.2358 7.4829 -20.2452 -1.3365 -0.1055 0 0 13.2168 -39.0375 20.7618 -0.2668 0 0 -5.1339 -3.2366 51.1705 -0.2827 0 0 28.1286 -12.6764 15.157 28.1389 -63.6915 33.5593 35.2392 -79.5868 32.3139 9.5626 -64.7767 7.6315 13.9258 -65.9512 19.1445 4.4883 -78.8882 4.0692 3.5401 -76.5273 3.1426 -9.7647 -65.9289 -4.6974 -10.2197 -75.7151 -9.0114 -15.5004 -79.7529 -14.1751 -9.7041 -58.0406 5.5555 -28.0148 -67.3712 -19.4953 -32.419 -69.7789 -23.5964 12.2701 -22.4546 -1.3175 -0.004 0.002 -25.5763 -0.0042 0.0031 -53.3165 0.0433 0.0016 0.2358 7.1271 20.225 7.1063 0.1054 0 0 5.9094 37.2446 -3.0967 0.2677 -0.0011 0 -8.2376 4.3774 -46.3183 0.2827 0 0 19.1982 -1.9605 -14.118 28.198 63.453 -33.4909 35.8278 79.3232 -32.7858 9.9492 64.7241 -7.9361 13.8444 65.5067 -18.8176 5.5262 78.7896 -5.0057 4.3579 76.4147 -3.8646 -9.0586 66.9165 3.3647 -10.3806 75.9946 8.9914 -15.7817 80.086 14.2786 -9.4397 58.1371 -5.9402 -27.9633 67.4663 19.4119 -32.3242 69.8696 23.4751 12.3555 22.3953 1.3773 -0.004 -0.0009 25.4505 -0.0073 -0.0043 53.2718 -0.115 0 -0.016 20.4385 -17.3556 -2.2756 0 0 -0.4171 17.4752 -0.2093 0.0128 -16.0062 -48.0675 -2.2075 0 -0.1046 -0.0835 -0.9979 -0.0086 0.05 0.115 0 -0.016 -18.8116 4.8153 11.6793 0 0 -0.4171 39.9756 2.3091 -0.8374 -13.4729 -11.1324 14.9507 0 -0.1046 -0.0835 -1.0017 0.0001 0 
-0.6158 0.174 0.9095 -7.7539 5.6553 -16.7189 0 -0.0004 0.1008 11.9504 1.4026 1.0038 0.0001 -0.0015 0.1537 14.7414 2.0732 4.1181 0 0.0016 0.2926 -1.8078 0.3129 11.0209 -31.3089 -1.8101 11.4306 -0.0433 0.0016 0.2358 7.4762 -20.2472 -1.4894 -0.1055 0 0 13.0785 -38.9509 20.2244 -0.2668 0 0 -5.0975 -3.2047 51.2418 -0.2827 0 0 28.1101 -12.5222 15.1003 28.139 -63.6915 33.5594 35.2393 -79.5868 32.3139 9.5625 -64.7766 7.6314 13.9259 -65.9512 19.1448 4.4883 -78.8884 4.0693 3.5401 -76.5275 3.1426 -9.7645 -65.929 -4.6969 -10.2198 -75.7153 -9.0115 -15.5009 -79.7531 -14.1755 -9.7036 -58.0411 5.5574 -28.0157 -67.3717 -19.4962 -32.4211 -69.7799 -23.5983 12.2701 -22.4546 -1.3176 -0.004 0.002 -25.5763 -0.0042 0.0031 -53.3165 0.0433 0.0016 0.2358 7.0744 20.1518 6.9034 0.1054 0 0 6.1624 37.0982 -3.8075 0.2677 -0.0011 0 -8.126 4.2014 -46.543 0.2827 0 0 19.6878 -1.54 -14.3891 28.1979 63.453 -33.4909 35.828 79.3233 -32.786 9.9492 64.7241 -7.9361 13.8443 65.5067 -18.8174 5.5258 78.7895 -5.0055 4.3575 76.4143 -3.8644 -9.0587 66.9165 3.3648 -10.3807 75.9946 8.9913 -15.7817 80.086 14.2787 -9.4401 58.1367 -5.9385 -27.9629 67.4659 19.4114 -32.3224 69.8687 23.4734 12.3554 22.3953 1.3773 -0.004 -0.0009 25.4505 -0.0073 -0.0043 53.2718 -0.115 0 -0.016 19.4124 -17.1582 -2.8759 0 0 -0.4171 20.1 -0.1113 -0.0046 -15.4727 -51.9524 -1.1257 0 -0.1046 -0.0835 -0.4883 -0.005 0.038 0.115 0 -0.016 -18.0642 4.152 11.2679 0 0 -0.4171 40.1421 2.2845 -0.8327 -14.1018 -10.5347 14.3893 0 -0.1046 -0.0835 -0.9287 0.0001 0 
-0.6257 0.17 0.9122 -7.9209 5.8925 -15.965 0 -0.0004 0.1008 12.0109 1.1259 0.9885 0.0001 -0.0015 0.1537 14.8159 1.7525 4.0016 0 0.0016 0.2926 -1.8132 0.3721 10.7804 -31.4087 -1.7787 11.2483 -0.0433 0.0016 0.2358 7.4309 -20.212 -1.6283 -0.1055 0 0 12.8839 -38.7805 19.9473 -0.2668 0 0 -5.1918 -3.1438 50.8827 -0.2827 0 0 28.0138 -12.3804 15.2003 28.1389 -63.6915 33.5593 35.2393 -79.5868 32.3139 9.5625 -64.7767 7.6314 13.926 -65.9513 19.1449 4.4883 -78.8885 4.0692 3.5403 -76.5277 3.1427 -9.7644 -65.9291 -4.6965 -10.22 -75.7155 -9.0117 -15.5011 -79.7533 -14.1758 -9.7033 -58.0414 5.5589 -28.0162 -67.3721 -19.4966 -32.4227 -69.7807 -23.5999 12.2701 -22.4545 -1.3176 -0.004 0.002 -25.5763 -0.0042 0.0031 -53.3165 0.0433 0.0016 0.2358 7.013 20.0652 6.659 0.1054 0 0 6.4319 36.9524 -4.5859 0.2677 -0.0011 0 -8.0135 4.0227 -46.9271 0.2827 0 0 20.1958 -1.0883 -14.6704 28.1979 63.4531 -33.4908 35.828 79.3233 -32.7859 9.9492 64.7241 -7.9361 13.8441 65.5065 -18.817 5.5258 78.7892 -5.0055 4.3577 76.414 -3.8644 -9.0586 66.9165 3.3648 -10.3807 75.9946 8.9914 -15.7815 80.086 14.2786 -9.5517 58.6307 -6.0694 -28.1793 67.6009 19.6114 -32.623 70.0127 23.7558 12.3555 22.3953 1.3773 -0.004 -0.0009 25.4505 -0.0073 -0.0043 53.2718 -0.115 0 -0.016 16.8955 -16.3203 -4.2079 0 0 -0.4171 25.0804 0.0425 -0.0712 -16.8675 -52.8639 -0.5533 0 -0.1046 -0.0835 -0.2394 -0.003 0.0179 0.115 0 -0.016 -17.3307 3.4806 10.8468 0 0 -0.4171 40.0827 2.2218 -0.8101 -14.593 -9.8977 13.7711 0 -0.1046 -0.0835 -0.8476 0.0001 -0.0001 
-0.634 0.1669 0.9143 -8.0805 6.0425 -15.3099 0 -0.0004 0.1008 12.0786 0.891 0.9458 0.0001 -0.0015 0.1537 14.8946 1.481 3.7935 0 0.0016 0.2926 -1.8252 0.4191 10.6465 -31.4912 -1.7223 11.1661 -0.0433 0.0016 0.2358 7.3949 -20.1799 -1.7226 -0.1055 0 0 12.7287 -38.6677 19.7116 -0.2668 0 0 -5.2697 -3.1173 50.7514 -0.2827 0 0 27.8937 -12.2942 15.1619 28.1389 -63.6915 33.5594 35.2392 -79.5868 32.3139 9.5625 -64.7766 7.6315 13.9261 -65.9513 19.145 4.4883 -78.8886 4.0693 3.5402 -76.5278 3.1427 -9.7643 -65.9291 -4.6964 -10.2201 -75.7156 -9.0118 -15.5011 -79.7533 -14.1757 -9.7031 -58.0415 5.5595 -28.0164 -67.3722 -19.4968 -32.4232 -69.781 -23.6003 12.2701 -22.4545 -1.3176 -0.004 0.002 -25.5763 -0.0042 0.0031 -53.3164 0.0433 0.0016 0.2358 6.9485 19.974 6.4277 0.1054 0 0 6.6536 36.8161 -5.2583 0.2677 -0.0011 0 -7.9296 3.8665 -47.4347 0.2827 0 0 20.6173 -0.6654 -14.8702 28.1979 63.453 -33.4908 35.8279 79.3232 -32.7858 9.9492 64.7241 -7.9361 13.8439 65.5064 -18.8169 5.5256 78.789 -5.0054 4.3573 76.4137 -3.8642 -9.0586 66.9165 3.3647 -10.3807 75.9946 8.9914 -15.7816 80.086 14.2785 -9.5817 58.7612 -6.1021 -28.239 67.6378 19.6666 -32.7043 70.0512 23.8322 12.3554 22.3953 1.3773 -0.004 -0.0009 25.4505 -0.0073 -0.0043 53.2718 -0.115 0 -0.016 13.9534 -15.135 -5.6925 0 0 -0.4171 30.5022 0.1074 -0.1161 -19.0383 -51.4448 -0.8375 0 -0.1046 -0.0835 -0.1175 -0.0022 0.0061 0.115 0 -0.016 -16.7738 2.9572 10.509 0 0 -0.4171 40.0475 2.1677 -0.7901 -14.9073 -9.4442 13.2803 0 -0.1046 -0.0835 -0.8033 0.0001 0 
-0.6442 0.1636 0.9165 -8.3052 6.2588 -14.5171 0 -0.0004 0.1008 12.1583 0.6502 0.9373 0.0001 -0.0015 0.1537 14.9947 1.1844 3.6989 0 0.0016 0.2926 -1.8321 0.4507 10.3954 -31.5197 -1.6403 10.9731 -0.0433 0.0016 0.2358 7.3577 -20.1531 -1.8599 -0.1055 0 0 12.4841 -38.5686 19.4206 -0.2668 0 0 -5.4474 -3.1509 50.3387 -0.2827 0 0 27.57 -12.167 15.2826 28.1389 -63.6915 33.5594 35.2392 -79.5868 32.3139 9.5625 -64.7766 7.6315 13.9261 -65.9514 19.145 4.4884 -78.8886 4.0693 3.5402 -76.5278 3.1427 -9.7643 -65.9292 -4.6963 -10.2202 -75.7156 -9.0119 -15.5012 -79.7533 -14.1758 -9.7031 -58.0416 5.5598 -28.0165 -67.3722 -19.4969 -32.4236 -69.7812 -23.6007 12.2701 -22.4546 -1.3176 -0.004 0.002 -25.5763 -0.0042 0.0031 -53.3165 0.0433 0.0016 0.2358 6.846 19.8325 6.1225 0.1054 0 0 6.9037 36.5972 -6.1403 0.2676 -0.0011 0 -7.8608 3.631 -48.156 0.2826 0 0 21.1399 -0.0541 -14.983 28.198 63.453 -33.4908 35.8278 79.3232 -32.7858 9.9492 64.7241 -7.9361 13.8438 65.5064 -18.8166 5.5255 78.7887 -5.0051 4.3573 76.4135 -3.864 -9.0586 66.9165 3.3648 -10.3806 75.9946 8.9914 -15.7815 80.086 14.2785 -9.585 58.7742 -6.1044 -28.2444 67.6411 19.6716 -32.7116 70.0547 23.839 12.3555 22.3953 1.3773 -0.004 -0.0009 25.4505 -0.0073 -0.0043 53.2718 -0.115 0 -0.016 12.0837 -13.9228 -6.8608 0 0 -0.4171 34.106 0.1639 -0.1348 -21.5408 -49.138 -2.2677 0 -0.1046 -0.0835 -0.4985 0.0015 0.0146 0.115 0 -0.016 -16.1581 2.2747 10.0688 0 0 -0.4171 40.0705 2.1023 -0.7667 -15.1435 -9.0027 12.6959 0 -0.1046 -0.0835 -0.8032 0.0001 0 
-0.6531 0.1611 0.9183 -8.4941 6.441 -13.8407 0 -0.0004 0.1008 12.2302 0.4391 0.9633 0.0001 -0.0015 0.1537 15.0818 0.9237 3.7249 0 0.0017 0.2925 -1.8405 0.4811 10.1112 -31.522 -1.515 10.7331 -0.0433 0.0017 0.2358 7.3496 -20.1509 -1.9838 -0.1055 0 0 12.2847 -38.5715 18.9223 -0.2668 0 0 -5.5362 -3.2359 50.4316 -0.2827 0 0 27.2468 -11.9783 15.1113 28.1389 -63.6915 33.5593 35.2394 -79.5868 32.314 9.5625 -64.7767 7.6315 13.9262 -65.9514 19.1451 4.4885 -78.8886 4.0693 3.5403 -76.5279 3.1428 -9.7643 -65.9292 -4.6962 -10.2201 -75.7156 -9.0118 -15.5012 -79.7534 -14.1758 -9.703 -58.0417 5.5601 -28.0166 -67.3723 -19.4969 -32.4239 -69.7813 -23.601 12.2702 -22.4546 -1.3175 -0.004 0.002 -25.5763 -0.0042 0.0031 -53.3165 0.0433 0.0017 0.2358 6.7535 19.7111 5.8858 0.1054 0 0 7.088 36.3644 -7.0103 0.2676 -0.0011 0 -7.852 3.41 -48.3494 0.2826 0 0 21.5428 0.4971 -15.2959 28.1979 63.453 -33.4908 35.8279 79.3232 -32.7858 9.9492 64.7241 -7.9361 13.8434 65.5061 -18.8161 5.5252 78.7882 -5.0048 4.3571 76.4128 -3.8638 -9.0586 66.9165 3.3647 -10.3807 75.9946 8.9914 -15.7816 80.086 14.2786 -9.5861 58.7751 -6.1018 -28.2436 67.6406 19.6709 -32.7102 70.054 23.8377 12.3554 22.3953 1.3773 -0.004 -0.0009 25.4505 -0.0073 -0.0043 53.2718 -0.115 0 -0.016 10.3343 -12.3751 -7.9227 0 0 -0.4171 37.2442 0.2763 -0.1782 -24.0964 -46.4699 -3.8089 0 -0.1046 -0.0835 -0.9193 0.0029 0.0222 0.115 0 -0.016 -15.6941 1.677 9.6909 0 0 -0.4171 40.1205 2.04 -0.7448 -15.2622 -8.7188 12.2246 0 -0.1046 -0.0835 -0.8304 0 -0.0001 
